<svg width="248" height="38" viewBox="0 0 248 38" fill="none" xmlns="http://www.w3.org/2000/svg">
<g clip-path="url(#clip0)">
<path d="M20.455 26.7257L10.6938 10.3835L4.49376 34.9414L1.4384 34.6445L1.20032 30.6257L1.90464 30.5762L1.984 31.8234L2.976 32.0511V29.913H0.83328L0 36.6835L6.66624 37.8516L10.783 22.3704L18.4413 37.5348L26.5757 21.2321L30.5437 35.2681L36.585 33.912L30.9306 7.91876L20.455 26.7257ZM18.3222 33.8922C18.4288 32.8158 18.3381 31.729 18.0544 30.6851C17.9216 30.2045 17.6849 29.7587 17.361 29.3791C17.0371 28.9994 16.6338 28.6952 16.1795 28.4877C15.753 28.2961 15.3722 28.016 15.0627 27.6661C14.7531 27.3162 14.5217 26.9045 14.384 26.4585C14.079 25.4549 14.0111 24.3944 14.1856 23.3603C14.3376 22.5457 14.3376 21.7101 14.1856 20.8956C14.0895 20.5553 13.8987 20.2492 13.6353 20.0127C13.3719 19.7762 13.0468 19.619 12.6976 19.5593C11.7651 19.3217 11.2394 18.5695 11.1005 17.3223C10.9309 16.3474 11.0304 15.3448 11.3882 14.422C11.1462 15.4217 11.1978 16.4698 11.537 17.441C11.6927 17.8306 11.9564 18.1678 12.2972 18.4132C12.638 18.6587 13.0419 18.8021 13.4614 18.8268C13.8187 18.8266 14.165 18.9496 14.4416 19.1752C14.7183 19.4007 14.9082 19.7148 14.9792 20.0641C15.1304 20.9054 15.1304 21.7668 14.9792 22.608C14.773 23.5626 14.8509 24.5565 15.2034 25.4675C15.5559 26.3785 16.1676 27.1668 16.9632 27.7354C17.4111 28.0457 17.7883 28.4468 18.0703 28.9124C18.3524 29.378 18.5328 29.8977 18.6 30.4376C18.731 31.6028 18.6367 32.7823 18.3222 33.912V33.8922Z" fill="#F1F2F2"/>
<path d="M51.7525 12.3631C50.0442 11.4821 48.1393 11.0495 46.2172 11.106C44.2922 11.0526 42.3848 11.485 40.6719 12.3631C39.1442 13.2078 38.3804 14.1976 38.3804 15.3327C38.3804 16.5205 39.1442 17.5202 40.6719 18.3517C42.3987 19.2191 44.3145 19.6443 46.2469 19.589C48.1665 19.6422 50.069 19.217 51.7823 18.3517C53.3199 17.5202 54.0937 16.5205 54.0937 15.3327C54.0937 14.1449 53.2901 13.2045 51.7525 12.3631ZM52.4965 15.006C52.3279 15.2139 52.0601 15.105 51.693 14.6992C50.5423 13.4322 49.4809 12.9373 48.5186 13.2144C47.9393 13.4515 47.4165 13.8076 46.9841 14.2595C46.5517 14.7115 46.2194 15.2491 46.0089 15.8375C45.802 16.4215 45.4172 16.9264 44.9085 17.2813C44.3997 17.6363 43.7925 17.8237 43.1717 17.8172C42.5707 17.8253 41.9758 17.6946 41.4338 17.4353C40.8917 17.176 40.417 16.7952 40.0469 16.3225C39.7692 15.986 39.6997 15.7286 39.8287 15.5405C39.9577 15.3525 40.1561 15.3426 40.4239 15.5405C41.4159 16.6986 42.4079 17.1342 43.3999 16.8372C44.0062 16.5962 44.5566 16.2338 45.0172 15.7725C45.4778 15.3111 45.839 14.7606 46.0783 14.1548C46.8124 12.7195 47.7449 12.1751 48.8857 12.472C50.1327 12.8369 51.2819 13.4762 52.2485 14.3428C52.5759 14.5507 52.6553 14.8476 52.4965 15.006Z" fill="#F1F2F2"/>
<path d="M41.5846 37.8515H45.5526L49.4611 20.9154L41.0588 20.7867L41.5846 37.8515ZM42.7552 22.0141L43.7472 22.1032L43.2313 23.7562L44.1241 25.3894L43.1321 27.2602L43.9555 29.6952L43.2809 31.1107L44.1241 32.4767L43.271 34.0505L44.0844 35.179L42.656 36.5152L42.7552 22.0141Z" fill="#F1F2F2"/>
<path d="M74.6382 21.4202L72.059 31.9521L59.3614 18.7179L58.6174 34.4762L56.0283 34.5653L55.2149 31.3285L55.6513 30.9424L55.7605 32.4965L57.06 32.4074L56.6533 30.1011L54.8379 30.2396L55.0859 35.763L60.8792 36.6835L60.9883 28.7648L71.9003 37.8515L74.6581 37.1784L76.1361 22.1724L78.0507 22.0339L78.1698 23.7562H77.5745L77.4654 22.8257L76.6421 22.9643L76.9 25.1024L79.1121 24.6075L78.8741 21.1331L74.6382 21.4202ZM60.5915 24.2511C60.3435 24.3006 60.1947 24.2511 60.1749 24.063C60.155 23.875 60.2443 23.7562 60.5121 23.7562C60.78 23.7562 60.8891 23.7562 60.9189 23.9542C60.9486 24.1521 60.8296 24.2115 60.5915 24.2511ZM69.9262 33.8427C69.9262 33.8922 69.9262 33.9021 69.8369 33.8427C69.8125 33.83 69.7932 33.8093 69.7823 33.784C69.7715 33.7587 69.7697 33.7305 69.7774 33.7041C69.8478 33.3986 69.8302 33.0794 69.7267 32.7834C69.6231 32.4874 69.4378 32.2267 69.1921 32.0313C68.6733 31.6547 68.0824 31.3885 67.4561 31.2493C66.9054 31.1357 66.389 30.895 65.9483 30.5465C65.728 30.3264 65.5588 30.0607 65.4526 29.7683C65.3463 29.4758 65.3056 29.1637 65.3333 28.8539C65.3333 27.7452 64.6389 27.2701 63.3493 27.4384C63.1012 27.4641 62.8511 27.4146 62.6316 27.2963C62.4122 27.178 62.2336 26.9964 62.1192 26.7752C61.7743 26.2091 61.6474 25.5372 61.7621 24.8846C62.0101 26.5772 62.6945 27.28 63.8155 27.0029C65.1051 26.6762 65.7995 27.1513 65.7995 28.4381C65.7749 28.7498 65.8122 29.0632 65.9092 29.3605C66.0062 29.6577 66.1611 29.933 66.3649 30.1704C66.7788 30.5427 67.2862 30.7959 67.8331 30.9028C68.1685 30.9489 68.491 31.063 68.7805 31.2381C69.0701 31.4133 69.3206 31.6457 69.5167 31.9212C69.7128 32.1966 69.8503 32.5092 69.9207 32.8396C69.9912 33.1701 69.993 33.5115 69.9262 33.8427ZM71.2257 34.4861C71.0769 34.5752 70.948 34.4861 70.8389 34.2386C70.7297 33.9911 70.7198 33.8427 70.8389 33.7635C70.9579 33.6843 71.1166 33.7635 71.2456 34.001C71.3745 34.2386 71.3646 34.397 71.2257 34.4861ZM72.307 35.6343C72.0689 35.5749 71.9697 35.466 71.9896 35.2878C72.0094 35.1097 72.1582 35.0503 72.4161 35.1097C72.6741 35.1691 72.7534 35.2977 72.7237 35.466C72.6939 35.6343 72.555 35.6343 72.307 35.6343Z" fill="#F1F2F2"/>
<path d="M86.1056 33.9021L85.8973 32.4074L91.3533 31.0612L91.026 25.7359L85.4013 26.9138L85.1632 23.3603L90.7879 21.7171L90.7184 17.9161L80.3521 19.8463L81.5028 37.8317H91.9684L91.8295 33.0607L86.1056 33.9021ZM83.1892 23.6869L82.5741 25.043L83.4173 25.5379L82.9213 27.2305L83.6356 28.4085L83.0404 30.1506L83.6852 31.0216L83.2288 32.0115L84.0125 33.1696L83.2586 33.9912L82.336 23.875L83.1892 23.6869ZM90.272 35.951L83.2288 36.2381L82.832 35.6343L90.3415 34.9117L90.272 35.951Z" fill="#F1F2F2"/>
<path d="M107.84 19.4999C106.004 18.2829 103.806 17.7276 101.611 17.926C99.484 17.971 97.4366 18.7393 95.8073 20.1037C94.433 21.3145 93.4318 22.8902 92.9206 24.6471C92.4196 26.3776 92.3684 28.2068 92.7718 29.9625C93.1109 31.6738 93.9698 33.2394 95.2319 34.4465C97.2118 36.417 99.8337 37.6145 102.622 37.8219C103.956 37.9326 105.299 37.7507 106.555 37.289C107.811 36.8274 108.95 36.097 109.894 35.1493C111.439 33.7476 112.422 31.8345 112.661 29.7645C112.909 27.7936 112.593 25.7928 111.749 23.9938C110.882 22.1673 109.53 20.613 107.84 19.4999ZM105.4 21.4796C105.522 21.4796 105.64 21.5156 105.742 21.583C105.843 21.6504 105.922 21.7463 105.968 21.8584C106.015 21.9706 106.027 22.094 106.003 22.213C105.979 22.332 105.921 22.4414 105.835 22.5272C105.749 22.6131 105.639 22.6715 105.52 22.6952C105.401 22.7189 105.277 22.7067 105.165 22.6603C105.052 22.6138 104.956 22.5352 104.889 22.4342C104.821 22.3333 104.785 22.2147 104.785 22.0933C104.772 22.0092 104.778 21.9233 104.804 21.8423C104.83 21.7613 104.875 21.6875 104.935 21.6269C104.995 21.5663 105.068 21.5205 105.149 21.4932C105.229 21.4659 105.316 21.4578 105.4 21.4697V21.4796ZM102.245 36.0599L100.192 34.6445L97.6524 35.3275L97.5532 33.0706L95.0633 31.4473L95.8569 29.1904L94.5971 25.9735L96.8588 24.6867L97.2556 21.9943L99.9638 22.2121L102.007 20.0047L103.634 22.2121C101.101 22.1395 99.2264 22.7994 98.0095 24.1917C96.853 25.4101 96.2132 27.0273 96.2239 28.7054C96.2469 29.5209 96.4344 30.3234 96.7753 31.065C97.1162 31.8065 97.6035 32.4718 98.2079 33.0211C99.4876 34.2782 101.392 34.7434 103.902 34.4069L102.245 36.0599ZM105.797 31.6749C105.425 32.0422 104.985 32.3328 104.502 32.5303C104.018 32.7278 103.5 32.8283 102.977 32.826C102.454 32.8237 101.937 32.7186 101.455 32.5169C100.973 32.3152 100.535 32.0207 100.167 31.6502C99.7991 31.2797 99.5078 30.8406 99.3099 30.3578C99.112 29.875 99.0113 29.358 99.0136 28.8364C99.0159 28.3148 99.1212 27.7987 99.3233 27.3177C99.5255 26.8366 99.8207 26.4001 100.192 26.0328C100.561 25.6602 101 25.3644 101.485 25.1625C101.969 24.9606 102.489 24.8567 103.014 24.8567C103.539 24.8567 104.059 24.9606 104.543 25.1625C105.028 25.3644 105.467 25.6602 105.836 26.0328C106.205 26.4006 106.498 26.8372 106.698 27.3179C106.897 27.7986 107 28.3138 107 28.8341C107 29.3544 106.897 29.8696 106.698 30.3503C106.498 30.831 106.205 31.2676 105.836 31.6353L105.797 31.6749ZM108.445 33.5457C108.294 33.5267 108.156 33.4533 108.055 33.3394C107.955 33.2255 107.899 33.0789 107.899 32.9271C107.899 32.7753 107.955 32.6287 108.055 32.5148C108.156 32.4009 108.294 32.3275 108.445 32.3084C108.533 32.2973 108.623 32.305 108.708 32.331C108.792 32.357 108.871 32.4007 108.937 32.4592C109.004 32.5178 109.057 32.5897 109.094 32.6704C109.13 32.7511 109.149 32.8386 109.149 32.9271C109.149 33.0156 109.13 33.1031 109.094 33.1838C109.057 33.2644 109.004 33.3364 108.937 33.3949C108.871 33.4535 108.792 33.4972 108.708 33.5232C108.623 33.5492 108.533 33.5569 108.445 33.5457ZM109.289 27.1316C109.125 27.1316 108.969 27.0669 108.854 26.9518C108.738 26.8367 108.674 26.6806 108.674 26.5179C108.674 26.3551 108.738 26.199 108.854 26.0839C108.969 25.9688 109.125 25.9042 109.289 25.9042C109.369 25.9042 109.449 25.92 109.524 25.9509C109.599 25.9817 109.666 26.0269 109.723 26.0839C109.781 26.1409 109.826 26.2086 109.857 26.283C109.888 26.3575 109.904 26.4373 109.904 26.5179C109.904 26.5985 109.888 26.6783 109.857 26.7527C109.826 26.8272 109.781 26.8948 109.723 26.9518C109.666 27.0088 109.599 27.054 109.524 27.0849C109.449 27.1157 109.369 27.1316 109.289 27.1316Z" fill="#F1F2F2"/>
<path d="M114.03 20.8164L115.012 22.6971L114.308 24.6768L115.221 26.2407L114.239 28.3887L115.766 29.725L114.893 32.4767L116.123 33.9615L115.538 36.8221L117.532 37.8417L115.112 19.688L114.03 20.8164Z" fill="#F1F2F2"/>
<path d="M121.956 33.4864L121.579 17.9062L116.064 19.3118L118.296 37.2972L129.208 35.4858L129.119 32.6648L121.956 33.4864ZM119.586 36.2084C119.447 36.4658 119.298 36.5747 119.129 36.5351C118.961 36.4955 119 36.3173 119.248 36.0005C119.604 35.3972 119.815 34.7194 119.863 34.0209C119.869 33.2865 119.592 32.578 119.09 32.0412C118.392 31.3702 117.942 30.4846 117.81 29.527C117.766 28.85 117.932 28.176 118.286 27.5968C118.509 27.3134 118.67 26.9862 118.758 26.6366C118.846 26.287 118.859 25.9229 118.796 25.5679C118.733 25.213 118.596 24.8752 118.394 24.5767C118.191 24.2782 117.928 24.0256 117.621 23.8354C116.53 22.9775 116.5 21.7798 117.532 20.2423C117.64 20.0435 117.801 19.8789 117.998 19.7672C118.127 19.7672 118.137 19.7672 117.998 19.8859C117.554 20.4599 117.276 21.1447 117.195 21.8656C117.195 22.4694 117.542 23.0039 118.326 23.489C118.907 23.8689 119.358 24.4184 119.615 25.0628C119.758 25.3487 119.81 25.6708 119.766 25.987C119.722 26.3032 119.583 26.5986 119.367 26.8346C118.856 27.4502 118.557 28.2138 118.514 29.0123C118.502 29.4499 118.584 29.885 118.755 30.2881C118.926 30.6912 119.182 31.0528 119.506 31.3483C120.597 32.4899 120.624 34.11 119.586 36.2084ZM121.788 35.3275C121.609 35.5452 121.451 35.5947 121.302 35.466C121.153 35.3374 121.163 35.1889 121.302 34.9612C121.441 34.7336 121.649 34.6742 121.788 34.8028C121.927 34.9315 122.016 35.0998 121.788 35.3275ZM123.98 34.9117C123.802 35.1394 123.643 35.1889 123.494 35.0602C123.345 34.9315 123.355 34.7731 123.494 34.5554C123.633 34.3376 123.841 34.2782 124 34.397C124.159 34.5158 124.159 34.694 124 34.9117H123.98Z" fill="#F1F2F2"/>
<path d="M142.481 18.0844L137.521 18.8862L132.928 37.7427H135.319L136.707 33.8823L141.856 32.6648L143.572 37.2576L149.524 37.5348V36.0302L147.401 35.5353L142.481 18.0844ZM137.342 31.4572L138.334 25.0925L141.677 31.4572H137.342ZM141.588 27.0227C141.364 26.8809 141.175 26.6908 141.034 26.4664C140.893 26.242 140.805 25.989 140.775 25.726C140.745 25.2402 140.765 24.7527 140.834 24.2709C140.929 23.6289 140.795 22.9742 140.457 22.4199C140.116 21.835 139.818 21.2263 139.564 20.5986C140.23 21.0107 140.758 21.61 141.082 22.3209C141.417 22.9818 141.568 23.7202 141.519 24.459C141.519 24.8648 141.459 25.2806 141.449 25.6864C141.471 25.9313 141.551 26.1676 141.682 26.3758C141.813 26.584 141.992 26.7582 142.203 26.8841C144.002 28.2501 144.683 29.715 144.247 31.279C144.313 29.8536 143.427 28.4348 141.588 27.0227ZM144.108 33.2983C144.108 33.0607 144.237 32.9419 144.505 32.9419C144.772 32.9419 144.891 33.0607 144.891 33.2983C144.891 33.5358 144.763 33.6546 144.505 33.6546C144.247 33.6546 144.108 33.5358 144.108 33.2983ZM144.763 36.4658C144.544 36.4658 144.435 36.2975 144.435 35.9807C144.435 35.664 144.544 35.5056 144.763 35.5056C144.981 35.5056 145.07 35.664 145.07 35.9807C145.07 36.2975 144.961 36.4658 144.763 36.4658Z" fill="#F1F2F2"/>
<path d="M134.852 19.7375L135.13 22.2715L133.672 23.4296L133.999 25.4984L132.095 27.3494L133.007 29.5567L131.202 31.4473L131.599 33.6052L129.763 36.0897L131.787 38L136.479 19.3514L134.852 19.7375Z" fill="#F1F2F2"/>
<path d="M188.936 32.5262C185.65 33.122 182.278 33.0581 179.016 32.3381C176.705 31.8531 176.348 29.9526 177.965 26.6466C179.582 23.3405 182.776 19.7177 187.538 15.6494L188.877 19.4504L191.456 16.5304L187.805 7.91876C173.296 14.9268 167.264 22.5156 169.711 30.6851C170.763 34.1628 172.793 36.3074 175.802 37.1191C179.079 37.9463 182.501 38.0208 185.811 37.3368C188.564 36.8654 191.272 36.1634 193.906 35.2384C196.051 34.4709 198.106 33.4753 200.037 32.2689L199.184 29.8536C195.832 30.9752 192.409 31.8681 188.936 32.5262ZM171.814 27.1118C171.734 27.1224 171.653 27.1159 171.576 27.0926C171.499 27.0694 171.428 27.03 171.367 26.977C171.307 26.9241 171.258 26.8588 171.225 26.7856C171.191 26.7124 171.174 26.6329 171.174 26.5525C171.174 26.4721 171.191 26.3927 171.225 26.3195C171.258 26.2462 171.307 26.181 171.367 26.128C171.428 26.0751 171.499 26.0356 171.576 26.0124C171.653 25.9892 171.734 25.9826 171.814 25.9933C172.181 25.9933 172.36 26.1813 172.36 26.5575C172.371 26.632 172.365 26.7082 172.342 26.78C172.319 26.8518 172.279 26.9172 172.226 26.971C172.173 27.0248 172.109 27.0656 172.037 27.09C171.965 27.1144 171.889 27.1219 171.814 27.1118ZM172.985 31.6749C172.872 31.6789 172.76 31.6489 172.665 31.5889C172.569 31.5289 172.493 31.4417 172.448 31.3384C172.402 31.2351 172.389 31.1206 172.409 31.0096C172.429 30.8986 172.482 30.7962 172.562 30.7157C172.641 30.6352 172.743 30.5803 172.853 30.558C172.964 30.5357 173.079 30.5471 173.184 30.5907C173.288 30.6343 173.377 30.7081 173.439 30.8025C173.5 30.897 173.532 31.0078 173.53 31.1206C173.54 31.1948 173.532 31.2702 173.508 31.341C173.485 31.4119 173.445 31.4764 173.392 31.5297C173.34 31.5831 173.276 31.6238 173.205 31.649C173.135 31.6741 173.059 31.683 172.985 31.6749ZM173.392 24.5778L171.735 23.0237C173.123 20.5884 174.839 18.3537 176.834 16.3819C179.134 14.1707 181.756 12.3186 184.611 10.8883L184.413 13.64L182.984 13.155L182.389 15.4317L180.177 15.2436L180.028 17.3124L178.262 17.1738L178.173 19.2128H175.792L176.12 21.9151L174.007 21.7765L173.392 24.5778ZM175.634 34.3079C175.521 34.3099 175.41 34.2782 175.316 34.217C175.221 34.1557 175.147 34.0677 175.103 33.9642C175.059 33.8608 175.047 33.7465 175.069 33.6361C175.09 33.5258 175.144 33.4243 175.224 33.3448C175.304 33.2653 175.405 33.2114 175.516 33.19C175.626 33.1685 175.741 33.1805 175.845 33.2244C175.948 33.2684 176.037 33.3422 176.098 33.4365C176.159 33.5308 176.191 33.6412 176.189 33.7536C176.202 33.8302 176.197 33.9088 176.174 33.9831C176.151 34.0573 176.111 34.1252 176.057 34.1811C176.003 34.237 175.936 34.2794 175.863 34.3049C175.789 34.3303 175.711 34.3382 175.634 34.3277V34.3079Z" fill="#F1F2F2"/>
<path d="M206.495 19.7375L206.772 22.2715L205.314 23.4296L205.642 25.4984L203.737 27.3494L204.65 29.5567L202.844 31.4473L203.241 33.6052L201.406 36.0897L203.429 38L208.122 19.3514L206.495 19.7375Z" fill="#F1F2F2"/>
<path d="M214.123 18.0844L209.163 18.8862L204.64 37.7427H207.03L208.419 33.8823L213.578 32.7044L215.264 37.2972L221.216 37.5744V36.0302L219.093 35.5353L214.123 18.0844ZM208.985 31.4572L209.977 25.0925L213.28 31.4572H208.985ZM213.28 27.0227C213.056 26.8809 212.867 26.6908 212.726 26.4664C212.585 26.242 212.496 25.989 212.467 25.726C212.437 25.2402 212.457 24.7527 212.526 24.2709C212.621 23.6289 212.487 22.9742 212.149 22.4199C211.808 21.835 211.51 21.2263 211.256 20.5986C211.921 21.0107 212.45 21.61 212.774 22.3209C213.109 22.9818 213.259 23.7202 213.211 24.459C213.211 24.8648 213.211 25.2806 213.141 25.6864C213.165 25.9307 213.246 26.166 213.377 26.3739C213.507 26.5817 213.685 26.7564 213.895 26.8841C215.694 28.2501 216.375 29.715 215.939 31.279C215.978 29.8536 215.092 28.4348 213.28 27.0227ZM215.8 33.2983C215.8 33.0607 215.929 32.9419 216.196 32.9419C216.464 32.9419 216.593 33.0607 216.593 33.2983C216.593 33.5358 216.454 33.6546 216.196 33.6546C215.939 33.6546 215.75 33.5358 215.75 33.2983H215.8ZM216.454 36.4658C216.236 36.4658 216.127 36.2975 216.127 35.9807C216.127 35.664 216.236 35.5056 216.454 35.5056C216.673 35.5056 216.762 35.664 216.762 35.9807C216.762 36.2975 216.603 36.4658 216.405 36.4658H216.454Z" fill="#F1F2F2"/>
<path d="M225.829 35.9511L223.101 36.1391L222.724 32.9717H223.259V34.0308H224.182V32.1996H222.198L222.456 37.6437L228.13 37.8516L229.003 28.7153L234.122 29.0915V26.3694L229.053 26.0626V22.9347L235.511 23.0732L235.679 18.124L226.057 17.9459L225.829 35.9511ZM227.287 18.4903L234.995 18.906V19.4306L227.287 18.906V18.4903ZM227.029 19.9453C227.208 19.9453 227.297 20.0443 227.297 20.2324C227.297 20.4205 227.208 20.5293 227.029 20.5293C226.85 20.5293 226.722 20.4304 226.722 20.2324C226.722 20.0344 226.821 19.9453 227.029 19.9453ZM226.91 22.7664C226.95 22.7612 226.99 22.7654 227.028 22.7787C227.066 22.792 227.101 22.8139 227.129 22.8427C227.157 22.8716 227.177 22.9066 227.189 22.9449C227.201 22.9832 227.204 23.0237 227.198 23.0633C227.202 23.1022 227.198 23.1416 227.186 23.1786C227.173 23.2157 227.152 23.2493 227.124 23.277C227.096 23.3047 227.063 23.3257 227.026 23.3384C226.988 23.3511 226.949 23.3552 226.91 23.3504C226.87 23.3569 226.83 23.3541 226.791 23.3421C226.753 23.3301 226.718 23.3094 226.689 23.2815C226.66 23.2536 226.638 23.2193 226.625 23.1815C226.611 23.1436 226.607 23.1031 226.612 23.0633C226.608 23.0232 226.612 22.9825 226.625 22.9443C226.639 22.9061 226.66 22.8714 226.689 22.8428C226.718 22.8142 226.752 22.7925 226.791 22.7792C226.829 22.766 226.87 22.7616 226.91 22.7664ZM226.91 25.1123C226.948 25.1091 226.987 25.1144 227.022 25.1278C227.058 25.1413 227.091 25.1625 227.117 25.19C227.144 25.2175 227.164 25.2505 227.176 25.2868C227.188 25.323 227.192 25.3614 227.188 25.3994C227.188 25.5973 227.089 25.6963 226.91 25.6963C226.731 25.6963 226.602 25.5973 226.602 25.3994C226.602 25.2014 226.682 25.0925 226.89 25.0925L226.91 25.1123Z" fill="#F1F2F2"/>
<path d="M247.861 33.0805L242.177 33.9021L241.969 32.4074L247.415 31.0612L247.087 25.7359L241.473 26.9138L241.235 23.3603L246.849 21.7171L246.78 17.9161L236.384 19.8958L237.535 37.8812H248L247.861 33.0805ZM239.261 23.6869L238.646 25.043L239.479 25.5379L238.983 27.2305L239.707 28.4085L239.072 30.1506L239.727 31.0216L239.261 32.0115L240.054 33.1696L239.3 33.9912L238.358 23.8354L239.261 23.6869ZM246.324 35.951L239.28 36.2381L238.903 35.6442L246.403 34.9216L246.324 35.951Z" fill="#F1F2F2"/>
<path d="M171.328 6.82996L171.001 7.12691L170.644 7.43376C170.027 7.95826 169.362 8.42542 168.66 8.82944L171.299 9.08679L171.328 6.82996Z" fill="#F1F2F2"/>
<path d="M184.512 1.70255C184.283 1.34244 183.977 1.03811 183.614 0.81199C183.252 0.585866 182.844 0.443698 182.419 0.395957C180.534 0.395957 177.727 1.91041 174.8 3.98908C172.092 2.12818 166.319 -1.41545 164.166 0.603823C162.014 2.6231 164.88 8.05733 166.537 10.9576C164.087 13.3431 162.301 15.4217 162.004 16.2532C161.879 17.2721 162.058 18.3051 162.519 19.2227C162.519 19.2227 166.944 20.6184 176.616 14.2735C181.08 10.72 185.881 4.94923 184.512 1.70255ZM179.721 10.1459C179.574 10.256 179.391 10.3079 179.208 10.2914C179.024 10.275 178.854 10.1914 178.729 10.0568C178.664 9.98271 178.614 9.89655 178.582 9.80322C178.55 9.7099 178.537 9.61124 178.544 9.51289C178.55 9.41454 178.576 9.31842 178.62 9.23002C178.663 9.14162 178.724 9.06267 178.798 8.99768C178.872 8.93268 178.959 8.88292 179.052 8.85123C179.146 8.81953 179.245 8.80653 179.343 8.81297C179.442 8.8194 179.538 8.84515 179.627 8.88873C179.715 8.93231 179.794 8.99287 179.86 9.06697C179.922 9.14785 179.968 9.2406 179.993 9.33957C180.019 9.43854 180.024 9.54165 180.008 9.64261C179.992 9.74357 179.956 9.84026 179.901 9.92679C179.847 10.0133 179.775 10.0879 179.691 10.1459H179.721ZM183.193 5.58272C183.081 5.68357 182.942 5.74837 182.793 5.76858C182.644 5.78879 182.492 5.76346 182.358 5.69593C182.224 5.6284 182.113 5.52184 182.041 5.3903C181.968 5.25876 181.937 5.10842 181.952 4.9591C181.967 4.80977 182.027 4.66848 182.124 4.55385C182.221 4.43922 182.351 4.35663 182.496 4.31697C182.641 4.27732 182.795 4.28246 182.937 4.33171C183.079 4.38097 183.203 4.47203 183.292 4.59288C183.398 4.74435 183.443 4.92966 183.419 5.11266C183.395 5.29566 183.304 5.46324 183.163 5.58272H183.193ZM182.459 0.633519L184.443 3.60304H181.139L182.459 0.633519ZM180.931 3.97918L181.923 7.85936L178.153 8.12662C179.076 6.77053 179.989 5.39465 180.901 4.00888L180.931 3.97918ZM177.647 12.7195L173.679 12.3334L177.647 8.75022V12.7195ZM164.9 0.742401C165.226 0.546928 165.594 0.431532 165.973 0.405718C166.353 0.379904 166.733 0.444411 167.083 0.593925C166.924 1.42539 166.795 3.30609 166.795 3.30609C166.795 3.30609 164.811 2.99924 163.898 2.94975C163.84 2.52501 163.903 2.09251 164.08 1.70201C164.258 1.31151 164.542 0.978885 164.9 0.742401ZM163.988 3.50406C164.91 3.50406 166.249 3.82081 167.152 3.83071C167.251 3.08832 167.36 1.50458 167.46 0.683011C168.494 0.979943 169.493 1.39165 170.436 1.91041C169.87 3.07802 169.086 4.12644 168.124 4.99872C167.225 5.82338 166.183 6.47748 165.049 6.92891C164.548 5.83796 164.191 4.68672 163.988 3.50406ZM165.664 7.73068C167.061 7.31849 168.348 6.60173 169.434 5.63222C170.334 4.82316 171.074 3.85285 171.616 2.77158L172.42 3.16751C171.841 4.34917 171.043 5.41058 170.069 6.29541L169.771 6.55277C168.653 7.48885 167.352 8.18318 165.952 8.59184L165.664 7.73068ZM166.497 10.7002L166.587 10.2944L167.956 10.6012L168.005 9.12636C167.459 9.40485 166.895 9.64947 166.319 9.85884L166.18 9.4629C167.841 8.86788 169.37 7.95689 170.684 6.78043C171.763 5.81382 172.681 4.68096 173.402 3.42487L173.759 3.62284C173.679 3.76142 173.6 3.89999 173.511 4.03857H173.808L174.007 6.92891H171.735V9.59158L168.491 9.27483L168.442 11.205L166.497 10.7002ZM165.386 18.6189L162.847 16.3324L167.063 15.7682L165.386 18.6189ZM168.948 17.4509C168.801 17.5632 168.618 17.6164 168.434 17.5999C168.25 17.5834 168.079 17.4984 167.956 17.3618C167.824 17.2122 167.757 17.0165 167.77 16.8179C167.783 16.6193 167.875 16.434 168.025 16.3027C168.175 16.1714 168.371 16.105 168.57 16.118C168.769 16.131 168.955 16.2224 169.086 16.372C169.166 16.4487 169.227 16.5422 169.266 16.6455C169.305 16.7489 169.32 16.8597 169.311 16.9697C169.301 17.0797 169.267 17.1862 169.211 17.2814C169.155 17.3766 169.079 17.4582 168.987 17.5202L168.948 17.4509ZM171.834 16.5205L168.372 15.3525L172.449 12.9768C172.281 14.2339 172.082 15.4118 171.874 16.5898L171.834 16.5205ZM168.223 13.254C168.166 13.27 168.107 13.2745 168.048 13.2673C167.989 13.2601 167.933 13.2413 167.881 13.212C167.83 13.1826 167.785 13.1434 167.749 13.0966C167.713 13.0497 167.686 12.9962 167.671 12.939C167.656 12.8819 167.652 12.8224 167.66 12.7639C167.669 12.7053 167.688 12.649 167.718 12.5982C167.749 12.5473 167.789 12.503 167.836 12.4678C167.884 12.4325 167.938 12.407 167.995 12.3928C169.903 11.8941 171.663 10.9433 173.124 9.62128C174.325 8.52652 175.29 7.19967 175.961 5.7213C175.986 5.66784 176.021 5.61976 176.064 5.57984C176.107 5.53991 176.158 5.50893 176.213 5.48869C176.269 5.46844 176.327 5.45933 176.386 5.46188C176.445 5.46443 176.503 5.47859 176.556 5.50354C176.611 5.52695 176.66 5.5612 176.701 5.6042C176.741 5.6472 176.773 5.69805 176.793 5.75363C176.814 5.80922 176.823 5.86837 176.819 5.92748C176.816 5.9866 176.801 6.04443 176.774 6.09744C176.052 7.68348 175.016 9.10763 173.729 10.2845L173.322 10.6309C171.856 11.8903 170.128 12.8098 168.263 13.3233L168.223 13.254ZM174.592 14.719C174.446 14.8313 174.262 14.8845 174.079 14.868C173.895 14.8515 173.724 14.7664 173.6 14.6299C173.49 14.4831 173.438 14.3006 173.454 14.1178C173.471 13.935 173.554 13.7648 173.689 13.64C173.839 13.5088 174.035 13.4423 174.234 13.4553C174.434 13.4683 174.619 13.5597 174.751 13.7093C174.882 13.859 174.949 14.0546 174.936 14.2532C174.923 14.4519 174.831 14.6372 174.681 14.7685L174.592 14.719Z" fill="#F1F2F2"/>
<path d="M173.441 4.25635C172.933 5.04734 172.348 5.78667 171.695 6.46369H173.56L173.441 4.25635Z" fill="#F1F2F2"/>
</g>
<defs>
<clipPath id="clip0">
<rect width="248" height="38" fill="white"/>
</clipPath>
</defs>
</svg>
