<svg width="172" height="11" viewBox="0 0 172 11" fill="none" xmlns="http://www.w3.org/2000/svg">
<g clip-path="url(#clip0)">
<path d="M14.8 10.0287L0 3.90552L1.2 1.1841L14.8 6.82133L28.9 0.989716L43.1 6.82133L57.3 0.989716L71.4 6.82133L85.6 0.989716L99.8 6.82133L113.9 0.989716L128.1 6.82133L142.3 0.989716L156.5 6.82133L170 1.1841L171.2 3.90552L156.5 10.0287L142.3 4.19711L128.1 10.0287L113.9 4.19711L99.8 10.0287L85.6 4.19711L71.4 10.0287L57.3 4.19711L43.1 10.0287L28.9 4.19711L14.8 10.0287Z" fill="#A13A24"/>
</g>
<defs>
<clipPath id="clip0">
<rect width="171.2" height="9.03901" fill="white" transform="translate(0 0.989716)"/>
</clipPath>
</defs>
</svg>
